<svg width="96" height="50" viewBox="0 0 96 50" fill="none" xmlns="http://www.w3.org/2000/svg">
<path d="M2.15625 10.8835V7.88352L14.1562 2.59943V6.05114L5.94034 9.34943L6.05114 9.17045V9.59659L5.94034 9.41761L14.1562 12.7159V16.1676L2.15625 10.8835ZM20.8381 18H16.8835L22.9091 0.545454H27.6648L33.6818 18H29.7273L25.3551 4.53409H25.2188L20.8381 18ZM20.5909 11.1392H29.9318V14.0199H20.5909V11.1392ZM35.7145 18V4.90909H39.2344V7.19318H39.3707C39.6094 6.38068 40.0099 5.76705 40.5724 5.35227C41.1349 4.93182 41.7827 4.72159 42.5156 4.72159C42.6974 4.72159 42.8935 4.73295 43.1037 4.75568C43.3139 4.77841 43.4986 4.80966 43.6577 4.84943V8.07102C43.4872 8.01989 43.2514 7.97443 42.9503 7.93466C42.6491 7.89489 42.3736 7.875 42.1236 7.875C41.5895 7.875 41.1122 7.99148 40.6918 8.22443C40.277 8.4517 39.9474 8.76989 39.7031 9.17898C39.4645 9.58807 39.3452 10.0597 39.3452 10.5938V18H35.7145ZM53.1541 4.90909V7.63636H45.2706V4.90909H53.1541ZM47.0604 1.77273H50.6911V13.9773C50.6911 14.3125 50.7422 14.5739 50.8445 14.7614C50.9467 14.9432 51.0888 15.071 51.2706 15.1449C51.4581 15.2187 51.674 15.2557 51.9183 15.2557C52.0888 15.2557 52.2592 15.2415 52.4297 15.2131C52.6001 15.179 52.7308 15.1534 52.8217 15.1364L53.3928 17.8381C53.2109 17.8949 52.9553 17.9602 52.6257 18.0341C52.2962 18.1136 51.8956 18.1619 51.424 18.179C50.549 18.2131 49.782 18.0966 49.1229 17.8295C48.4695 17.5625 47.9609 17.1477 47.5973 16.5852C47.2337 16.0227 47.0547 15.3125 47.0604 14.4545V1.77273ZM59.4311 10.4318V18H55.8004V0.545454H59.3288V7.21875H59.4822C59.7777 6.44602 60.255 5.84091 60.9141 5.40341C61.5732 4.96023 62.3999 4.73864 63.3942 4.73864C64.3033 4.73864 65.0959 4.9375 65.772 5.33523C66.4538 5.72727 66.9822 6.29261 67.3572 7.03125C67.7379 7.7642 67.9254 8.64205 67.9197 9.66477V18H64.2891V10.3125C64.2947 9.50568 64.0902 8.87784 63.6754 8.42898C63.2663 7.98011 62.6925 7.75568 61.9538 7.75568C61.4595 7.75568 61.022 7.8608 60.6413 8.07102C60.2663 8.28125 59.9709 8.58807 59.755 8.99148C59.5447 9.3892 59.4368 9.86932 59.4311 10.4318ZM79.1719 12.4261V4.90909H82.8026V18H79.3168V15.6222H79.1804C78.8849 16.3892 78.3935 17.0057 77.706 17.4716C77.0241 17.9375 76.1918 18.1705 75.2088 18.1705C74.3338 18.1705 73.5639 17.9716 72.8991 17.5739C72.2344 17.1761 71.7145 16.6108 71.3395 15.8778C70.9702 15.1449 70.7827 14.267 70.777 13.2443V4.90909H74.4077V12.5966C74.4134 13.3693 74.6207 13.9801 75.0298 14.429C75.4389 14.8778 75.9872 15.1023 76.6747 15.1023C77.1122 15.1023 77.5213 15.0028 77.902 14.804C78.2827 14.5994 78.5895 14.2983 78.8224 13.9006C79.0611 13.5028 79.1776 13.0114 79.1719 12.4261ZM85.7067 18V4.90909H89.2266V7.19318H89.3629C89.6016 6.38068 90.0021 5.76705 90.5646 5.35227C91.1271 4.93182 91.7749 4.72159 92.5078 4.72159C92.6896 4.72159 92.8857 4.73295 93.0959 4.75568C93.3061 4.77841 93.4908 4.80966 93.6499 4.84943V8.07102C93.4794 8.01989 93.2436 7.97443 92.9425 7.93466C92.6413 7.89489 92.3658 7.875 92.1158 7.875C91.5817 7.875 91.1044 7.99148 90.6839 8.22443C90.2692 8.4517 89.9396 8.76989 89.6953 9.17898C89.4567 9.58807 89.3374 10.0597 89.3374 10.5938V18H85.7067ZM4.67045 29.5455L8.8892 42.8068H9.05114L13.2784 29.5455H17.3693L11.3523 47H6.59659L0.571023 29.5455H4.67045ZM19.402 47V33.9091H23.0327V47H19.402ZM21.2259 32.2216C20.6861 32.2216 20.223 32.0426 19.8366 31.6847C19.456 31.321 19.2656 30.8864 19.2656 30.3807C19.2656 29.8807 19.456 29.4517 19.8366 29.0938C20.223 28.7301 20.6861 28.5483 21.2259 28.5483C21.7656 28.5483 22.2259 28.7301 22.6065 29.0938C22.9929 29.4517 23.1861 29.8807 23.1861 30.3807C23.1861 30.8864 22.9929 31.321 22.6065 31.6847C22.2259 32.0426 21.7656 32.2216 21.2259 32.2216ZM31.8558 47.2557C30.5149 47.2557 29.3615 46.9716 28.3956 46.4034C27.4354 45.8295 26.6967 45.0341 26.1797 44.017C25.6683 43 25.4126 41.8295 25.4126 40.5057C25.4126 39.1648 25.6712 37.9886 26.1882 36.9773C26.7109 35.9602 27.4524 35.1676 28.4126 34.5994C29.3729 34.0256 30.5149 33.7386 31.8388 33.7386C32.9808 33.7386 33.9808 33.946 34.8388 34.3608C35.6967 34.7756 36.3757 35.358 36.8757 36.108C37.3757 36.858 37.6513 37.7386 37.7024 38.75H34.2763C34.1797 38.0966 33.924 37.571 33.5092 37.1733C33.1001 36.7699 32.5632 36.5682 31.8984 36.5682C31.3359 36.5682 30.8445 36.7216 30.424 37.0284C30.0092 37.3295 29.6854 37.7699 29.4524 38.3494C29.2195 38.929 29.103 39.6307 29.103 40.4545C29.103 41.2898 29.2166 42 29.4439 42.5852C29.6768 43.1705 30.0036 43.6165 30.424 43.9233C30.8445 44.2301 31.3359 44.3835 31.8984 44.3835C32.3132 44.3835 32.6854 44.2983 33.0149 44.1278C33.3501 43.9574 33.6257 43.7102 33.8416 43.3864C34.0632 43.0568 34.2081 42.6619 34.2763 42.2017H37.7024C37.6456 43.2017 37.3729 44.0824 36.8842 44.8438C36.4013 45.5994 35.7337 46.1903 34.8814 46.6165C34.0291 47.0426 33.0206 47.2557 31.8558 47.2557ZM46.9901 33.9091V36.6364H39.1065V33.9091H46.9901ZM40.8963 30.7727H44.527V42.9773C44.527 43.3125 44.5781 43.5739 44.6804 43.7614C44.7827 43.9432 44.9247 44.071 45.1065 44.1449C45.294 44.2187 45.5099 44.2557 45.7543 44.2557C45.9247 44.2557 46.0952 44.2415 46.2656 44.2131C46.4361 44.179 46.5668 44.1534 46.6577 44.1364L47.2287 46.8381C47.0469 46.8949 46.7912 46.9602 46.4616 47.0341C46.1321 47.1136 45.7315 47.1619 45.2599 47.179C44.3849 47.2131 43.6179 47.0966 42.9588 46.8295C42.3054 46.5625 41.7969 46.1477 41.4332 45.5852C41.0696 45.0227 40.8906 44.3125 40.8963 43.4545V30.7727ZM55.1293 47.2557C53.8054 47.2557 52.6605 46.9744 51.6946 46.4119C50.7344 45.8437 49.9929 45.054 49.4702 44.0426C48.9474 43.0256 48.6861 41.8466 48.6861 40.5057C48.6861 39.1534 48.9474 37.9716 49.4702 36.9602C49.9929 35.9432 50.7344 35.1534 51.6946 34.5909C52.6605 34.0227 53.8054 33.7386 55.1293 33.7386C56.4531 33.7386 57.5952 34.0227 58.5554 34.5909C59.5213 35.1534 60.2656 35.9432 60.7884 36.9602C61.3111 37.9716 61.5724 39.1534 61.5724 40.5057C61.5724 41.8466 61.3111 43.0256 60.7884 44.0426C60.2656 45.054 59.5213 45.8437 58.5554 46.4119C57.5952 46.9744 56.4531 47.2557 55.1293 47.2557ZM55.1463 44.4432C55.7486 44.4432 56.2514 44.2727 56.6548 43.9318C57.0582 43.5852 57.3622 43.1136 57.5668 42.517C57.777 41.9205 57.8821 41.2415 57.8821 40.4801C57.8821 39.7188 57.777 39.0398 57.5668 38.4432C57.3622 37.8466 57.0582 37.375 56.6548 37.0284C56.2514 36.6818 55.7486 36.5085 55.1463 36.5085C54.5384 36.5085 54.027 36.6818 53.6122 37.0284C53.2031 37.375 52.8935 37.8466 52.6832 38.4432C52.4787 39.0398 52.3764 39.7188 52.3764 40.4801C52.3764 41.2415 52.4787 41.9205 52.6832 42.517C52.8935 43.1136 53.2031 43.5852 53.6122 43.9318C54.027 44.2727 54.5384 44.4432 55.1463 44.4432ZM63.9332 47V33.9091H67.4531V36.1932H67.5895C67.8281 35.3807 68.2287 34.767 68.7912 34.3523C69.3537 33.9318 70.0014 33.7216 70.7344 33.7216C70.9162 33.7216 71.1122 33.733 71.3224 33.7557C71.5327 33.7784 71.7173 33.8097 71.8764 33.8494V37.071C71.706 37.0199 71.4702 36.9744 71.169 36.9347C70.8679 36.8949 70.5923 36.875 70.3423 36.875C69.8082 36.875 69.331 36.9915 68.9105 37.2244C68.4957 37.4517 68.1662 37.7699 67.9219 38.179C67.6832 38.5881 67.5639 39.0597 67.5639 39.5938V47H63.9332ZM80.6058 28.7273L74.9808 49.625H71.853L77.478 28.7273H80.6058ZM95.0625 41.5199L83.0625 46.804V43.3523L91.2784 40.054L91.1676 40.233V39.8068L91.2784 39.9858L83.0625 36.6875V33.2358L95.0625 38.5199V41.5199Z" fill="#0180FF"/>
</svg>
